<svg width="24" height="24" viewBox="0 0 24 24" fill="none" xmlns="http://www.w3.org/2000/svg">
<path opacity="0.4" d="M16.19 2H7.81C4.17 2 2 4.17 2 7.81V16.18C2 19.83 4.17 22 7.81 22H16.18C19.82 22 21.99 19.83 21.99 16.19V7.81C22 4.17 19.83 2 16.19 2Z" fill="#31B7BD"/>
<path d="M15.58 19.25C15.17 19.25 14.83 18.91 14.83 18.5V14.6C14.83 14.19 15.17 13.85 15.58 13.85C15.99 13.85 16.33 14.19 16.33 14.6V18.5C16.33 18.91 15.99 19.25 15.58 19.25Z" fill="#31B7BD"/>
<path d="M15.58 8.2C15.17 8.2 14.83 7.86 14.83 7.45V5.5C14.83 5.09 15.17 4.75 15.58 4.75C15.99 4.75 16.33 5.09 16.33 5.5V7.45C16.33 7.86 15.99 8.2 15.58 8.2Z" fill="#31B7BD"/>
<path d="M8.42004 19.25C8.01004 19.25 7.67004 18.91 7.67004 18.5V16.55C7.67004 16.14 8.01004 15.8 8.42004 15.8C8.83004 15.8 9.17004 16.14 9.17004 16.55V18.5C9.17004 18.91 8.84004 19.25 8.42004 19.25Z" fill="#31B7BD"/>
<path d="M8.42004 10.15C8.01004 10.15 7.67004 9.81 7.67004 9.4V5.5C7.67004 5.09 8.01004 4.75 8.42004 4.75C8.83004 4.75 9.17004 5.09 9.17004 5.5V9.4C9.17004 9.81 8.84004 10.15 8.42004 10.15Z" fill="#31B7BD"/>
<path d="M15.58 7.33002C14.08 7.33002 12.85 8.55002 12.85 10.05C12.85 11.55 14.07 12.78 15.58 12.78C17.08 12.78 18.3 11.56 18.3 10.05C18.3 8.54002 17.08 7.33002 15.58 7.33002Z" fill="#31B7BD"/>
<path d="M8.41995 11.23C6.91995 11.23 5.69995 12.45 5.69995 13.96C5.69995 15.47 6.91995 16.68 8.41995 16.68C9.91995 16.68 11.15 15.46 11.15 13.96C11.15 12.46 9.92995 11.23 8.41995 11.23Z" fill="#31B7BD"/>
</svg>
