<svg width="76" height="76" viewBox="0 0 76 76" fill="none" xmlns="http://www.w3.org/2000/svg">
<path fill-rule="evenodd" clip-rule="evenodd" d="M26.125 26.125C25.2505 26.125 24.5416 26.8339 24.5416 27.7083V51.4583C24.5416 52.3328 25.2505 53.0417 26.125 53.0417H49.875C50.7494 53.0417 51.4583 52.3328 51.4583 51.4583V27.7083C51.4583 26.8339 50.7494 26.125 49.875 26.125H26.125ZM29.2916 29.2917C28.4172 29.2917 27.7083 30.0005 27.7083 30.875V48.2917C27.7083 49.1661 28.4172 49.875 29.2916 49.875H46.7083C47.5827 49.875 48.2916 49.1661 48.2916 48.2917V30.875C48.2916 30.0005 47.5827 29.2917 46.7083 29.2917H29.2916Z" fill="#094998"/>
<path d="M26.125 52.5417C25.8489 52.5417 25.625 52.7655 25.625 53.0417C25.625 53.3178 25.8489 53.5417 26.125 53.5417V52.5417ZM50.2708 53.5417C50.547 53.5417 50.7708 53.3178 50.7708 53.0417C50.7708 52.7655 50.547 52.5417 50.2708 52.5417V53.5417ZM26.125 25.625C25.8489 25.625 25.625 25.8489 25.625 26.125C25.625 26.4011 25.8489 26.625 26.125 26.625V25.625ZM50.2708 26.625C50.547 26.625 50.7708 26.4011 50.7708 26.125C50.7708 25.8489 50.547 25.625 50.2708 25.625V26.625ZM32.9583 35.625C32.9583 35.0267 33.4434 34.5417 34.0417 34.5417V33.5417C32.8911 33.5417 31.9583 34.4744 31.9583 35.625H32.9583ZM34.0417 34.5417H41.9583V33.5417H34.0417V34.5417ZM41.9583 34.5417C42.5566 34.5417 43.0417 35.0267 43.0417 35.625H44.0417C44.0417 34.4744 43.1089 33.5417 41.9583 33.5417V34.5417ZM43.0417 35.625V43.5417H44.0417V35.625H43.0417ZM43.0417 43.5417C43.0417 44.14 42.5566 44.625 41.9583 44.625V45.625C43.1089 45.625 44.0417 44.6923 44.0417 43.5417H43.0417ZM41.9583 44.625H34.0417V45.625H41.9583V44.625ZM34.0417 44.625C33.4434 44.625 32.9583 44.14 32.9583 43.5417H31.9583C31.9583 44.6923 32.8911 45.625 34.0417 45.625V44.625ZM32.9583 43.5417V35.625H31.9583V43.5417H32.9583ZM33.3542 26.125V21.375H32.3542V26.125H33.3542ZM34.4375 20.2917H35.2292V19.2917H34.4375V20.2917ZM37.3125 18.2083V7.125H36.3125V18.2083H37.3125ZM35.2292 5.04167H16.2292V6.04167H35.2292V5.04167ZM43.6458 26.125V24.9375H42.6458V26.125H43.6458ZM44.7292 23.8542H48.6875V22.8542H44.7292V23.8542ZM50.7708 21.7708V12.2708H49.7708V21.7708H50.7708ZM51.8542 11.1875H60.5625V10.1875H51.8542V11.1875ZM32.3542 53.0417V64.5208H33.3542V53.0417H32.3542ZM34.4375 66.6042H37.6042V65.6042H34.4375V66.6042ZM38.6875 67.6875V71.25H39.6875V67.6875H38.6875ZM37.6042 72.3333H17.8125V73.3333H37.6042V72.3333ZM16.7292 71.25V66.1042H15.7292V71.25H16.7292ZM14.6458 64.0208H6.72917V65.0208H14.6458V64.0208ZM42.6458 53.0417V57.3958H43.6458V53.0417H42.6458ZM44.7292 59.4792H50.2708V58.4792H44.7292V59.4792ZM51.3542 60.5625V64.5208H52.3542V60.5625H51.3542ZM53.4375 66.6042H62.9375V65.6042H53.4375V66.6042ZM51.4583 45.2292H55.0208V44.2292H51.4583V45.2292ZM56.1042 46.3125V49.4792H57.1042V46.3125H56.1042ZM58.1875 51.5625H67.6875V50.5625H58.1875V51.5625ZM68.7708 52.6458V72.8333H69.7708V52.6458H68.7708ZM51.4583 34.9375H60.5625V33.9375H51.4583V34.9375ZM62.6458 32.8542V26.5208H61.6458V32.8542H62.6458ZM63.7292 25.4375H73.625V24.4375H63.7292V25.4375ZM24.5417 33.9375H18.6042V34.9375H24.5417V33.9375ZM17.5208 32.8542V31.2708H16.5208V32.8542H17.5208ZM15.4375 29.1875H6.72917V30.1875H15.4375V29.1875ZM5.64583 28.1042V22.5625H4.64583V28.1042H5.64583ZM24.5417 44.2292H14.6458V45.2292H24.5417V44.2292ZM12.5625 46.3125V51.0625H13.5625V46.3125H12.5625ZM11.4792 52.1458H3.95833V53.1458H11.4792V52.1458ZM2.875 51.0625V43.5417H1.875V51.0625H2.875ZM62.6458 9.10417V2.375H61.6458V9.10417H62.6458ZM26.125 53.5417H32.8542V52.5417H26.125V53.5417ZM32.8542 53.5417H43.1458V52.5417H32.8542V53.5417ZM43.1458 53.5417H50.2708V52.5417H43.1458V53.5417ZM26.125 26.625H32.8542V25.625H26.125V26.625ZM32.8542 26.625H43.1458V25.625H32.8542V26.625ZM43.1458 26.625H50.2708V25.625H43.1458V26.625ZM3.95833 52.1458C3.36002 52.1458 2.875 51.6608 2.875 51.0625H1.875C1.875 52.2131 2.80774 53.1458 3.95833 53.1458V52.1458ZM12.5625 51.0625C12.5625 51.6608 12.0775 52.1458 11.4792 52.1458V53.1458C12.6298 53.1458 13.5625 52.2131 13.5625 51.0625H12.5625ZM14.6458 44.2292C13.4952 44.2292 12.5625 45.1619 12.5625 46.3125H13.5625C13.5625 45.7142 14.0475 45.2292 14.6458 45.2292V44.2292ZM17.5208 31.2708C17.5208 30.1202 16.5881 29.1875 15.4375 29.1875V30.1875C16.0358 30.1875 16.5208 30.6725 16.5208 31.2708H17.5208ZM60.5625 34.9375C61.7131 34.9375 62.6458 34.0048 62.6458 32.8542H61.6458C61.6458 33.4525 61.1608 33.9375 60.5625 33.9375V34.9375ZM55.0208 45.2292C55.6191 45.2292 56.1042 45.7142 56.1042 46.3125H57.1042C57.1042 45.1619 56.1714 44.2292 55.0208 44.2292V45.2292ZM51.3542 64.5208C51.3542 65.6714 52.2869 66.6042 53.4375 66.6042V65.6042C52.8392 65.6042 52.3542 65.1191 52.3542 64.5208H51.3542ZM50.2708 59.4792C50.8691 59.4792 51.3542 59.9642 51.3542 60.5625H52.3542C52.3542 59.4119 51.4214 58.4792 50.2708 58.4792V59.4792ZM42.6458 57.3958C42.6458 58.5464 43.5786 59.4792 44.7292 59.4792V58.4792C44.1309 58.4792 43.6458 57.9941 43.6458 57.3958H42.6458ZM16.7292 66.1042C16.7292 64.9536 15.7964 64.0208 14.6458 64.0208V65.0208C15.2441 65.0208 15.7292 65.5059 15.7292 66.1042H16.7292ZM6.72917 29.1875C6.13086 29.1875 5.64583 28.7025 5.64583 28.1042H4.64583C4.64583 29.2548 5.57857 30.1875 6.72917 30.1875V29.1875ZM32.3542 64.5208C32.3542 65.6714 33.2869 66.6042 34.4375 66.6042V65.6042C33.8392 65.6042 33.3542 65.1191 33.3542 64.5208H32.3542ZM18.6042 33.9375C18.0059 33.9375 17.5208 33.4525 17.5208 32.8542H16.5208C16.5208 34.0048 17.4536 34.9375 18.6042 34.9375V33.9375ZM60.5625 11.1875C61.7131 11.1875 62.6458 10.2548 62.6458 9.10417H61.6458C61.6458 9.70247 61.1608 10.1875 60.5625 10.1875V11.1875ZM50.7708 12.2708C50.7708 11.6725 51.2559 11.1875 51.8542 11.1875V10.1875C50.7036 10.1875 49.7708 11.1202 49.7708 12.2708H50.7708ZM17.8125 72.3333C17.2142 72.3333 16.7292 71.8483 16.7292 71.25H15.7292C15.7292 72.4006 16.6619 73.3333 17.8125 73.3333V72.3333ZM37.3125 7.125C37.3125 5.97441 36.3798 5.04167 35.2292 5.04167V6.04167C35.8275 6.04167 36.3125 6.52669 36.3125 7.125H37.3125ZM48.6875 23.8542C49.8381 23.8542 50.7708 22.9214 50.7708 21.7708H49.7708C49.7708 22.3691 49.2858 22.8542 48.6875 22.8542V23.8542ZM38.6875 71.25C38.6875 71.8483 38.2025 72.3333 37.6042 72.3333V73.3333C38.7548 73.3333 39.6875 72.4006 39.6875 71.25H38.6875ZM67.6875 51.5625C68.2858 51.5625 68.7708 52.0475 68.7708 52.6458H69.7708C69.7708 51.4952 68.8381 50.5625 67.6875 50.5625V51.5625ZM35.2292 20.2917C36.3798 20.2917 37.3125 19.3589 37.3125 18.2083H36.3125C36.3125 18.8066 35.8275 19.2917 35.2292 19.2917V20.2917ZM62.6458 26.5208C62.6458 25.9225 63.1309 25.4375 63.7292 25.4375V24.4375C62.5786 24.4375 61.6458 25.3702 61.6458 26.5208H62.6458ZM43.6458 24.9375C43.6458 24.3392 44.1309 23.8542 44.7292 23.8542V22.8542C43.5786 22.8542 42.6458 23.7869 42.6458 24.9375H43.6458ZM37.6042 66.6042C38.2025 66.6042 38.6875 67.0892 38.6875 67.6875H39.6875C39.6875 66.5369 38.7548 65.6042 37.6042 65.6042V66.6042ZM56.1042 49.4792C56.1042 50.6298 57.0369 51.5625 58.1875 51.5625V50.5625C57.5892 50.5625 57.1042 50.0775 57.1042 49.4792H56.1042ZM33.3542 21.375C33.3542 20.7767 33.8392 20.2917 34.4375 20.2917V19.2917C33.2869 19.2917 32.3542 20.2244 32.3542 21.375H33.3542Z" fill="#31B7BD"/>
<path d="M50.2709 63.7292V61.5625C50.2709 61.0102 49.8232 60.5625 49.2709 60.5625H47.1042M14.6459 48.6875V47.3125C14.6459 46.7602 15.0936 46.3125 15.6459 46.3125H19M35.2292 11.4792V8.125C35.2292 7.57272 34.7815 7.125 34.2292 7.125H30.875M56.6042 32.8542H59.5625C60.1148 32.8542 60.5625 32.4064 60.5625 31.8542V28.1042" stroke="#094998" stroke-linecap="round" stroke-linejoin="round"/>
<path d="M17.0208 5.54167C17.0208 6.85335 15.9575 7.91667 14.6458 7.91667C13.3342 7.91667 12.2708 6.85335 12.2708 5.54167C12.2708 4.22999 13.3342 3.16667 14.6458 3.16667C15.9575 3.16667 17.0208 4.22999 17.0208 5.54167Z" fill="#094998"/>
<path d="M7.52083 20.5833C7.52083 21.895 6.45751 22.9583 5.14583 22.9583C3.83416 22.9583 2.77083 21.895 2.77083 20.5833C2.77083 19.2717 3.83416 18.2083 5.14583 18.2083C6.45751 18.2083 7.52083 19.2717 7.52083 20.5833Z" fill="#094998"/>
<path d="M64.5208 2.375C64.5208 3.68668 63.4575 4.75 62.1458 4.75C60.8341 4.75 59.7708 3.68668 59.7708 2.375C59.7708 1.06332 60.8341 0 62.1458 0C63.4575 0 64.5208 1.06332 64.5208 2.375Z" fill="#094998"/>
<path d="M76 24.5417C76 25.8533 74.9367 26.9167 73.625 26.9167C72.3133 26.9167 71.25 25.8533 71.25 24.5417C71.25 23.23 72.3133 22.1667 73.625 22.1667C74.9367 22.1667 76 23.23 76 24.5417Z" fill="#094998"/>
<path d="M71.6458 73.625C71.6458 74.9367 70.5825 76 69.2708 76C67.9592 76 66.8958 74.9367 66.8958 73.625C66.8958 72.3133 67.9592 71.25 69.2708 71.25C70.5825 71.25 71.6458 72.3133 71.6458 73.625Z" fill="#094998"/>
<path d="M64.125 66.5C64.125 67.8117 63.0617 68.875 61.75 68.875C60.4383 68.875 59.375 67.8117 59.375 66.5C59.375 65.1883 60.4383 64.125 61.75 64.125C63.0617 64.125 64.125 65.1883 64.125 66.5Z" fill="#094998"/>
<path d="M7.91667 64.5208C7.91667 65.8325 6.85334 66.8958 5.54167 66.8958C4.22999 66.8958 3.16667 65.8325 3.16667 64.5208C3.16667 63.2092 4.22999 62.1458 5.54167 62.1458C6.85334 62.1458 7.91667 63.2092 7.91667 64.5208Z" fill="#094998"/>
<path d="M4.75 43.5417C4.75 44.8533 3.68668 45.9167 2.375 45.9167C1.06332 45.9167 0 44.8533 0 43.5417C0 42.23 1.06332 41.1667 2.375 41.1667C3.68668 41.1667 4.75 42.23 4.75 43.5417Z" fill="#094998"/>
</svg>
