<svg width="103" height="75" viewBox="0 0 103 75" fill="none" xmlns="http://www.w3.org/2000/svg">
<path fill-rule="evenodd" clip-rule="evenodd" d="M102.764 60.5041H99.5483C97.8099 69.2013 92.2183 72.7672 83.6426 72.1004C84.5987 74.2457 84.0482 74.9995 81.8753 74.9995H74.0238C71.9378 74.9995 71.3874 74.0718 72.4014 72.1004H27.2629C28.2479 74.0718 27.6685 74.9995 25.4666 74.9995H17.5862C16.8786 74.962 16.2134 74.65 15.732 74.1298C15.523 73.8637 15.588 73.4107 15.6576 72.926C15.6942 72.6714 15.732 72.408 15.732 72.1584C14.2834 72.1584 12.4581 72.1584 10.6618 71.7815C4.53972 70.9653 -0.024864 65.7276 0.000101917 59.5474V12.5245C0.157585 5.56108 5.84501 -0.0012372 12.8058 0.000548078H86.7716C90.1209 -0.0308583 93.3418 1.28865 95.7076 3.66136C98.0733 6.03406 99.3846 9.26007 99.3455 12.6115V40.9354C99.2308 41.9171 99.624 42.8897 100.388 43.5156C102.287 44.9385 103.264 47.2813 102.938 49.6326C102.784 51.8734 102.835 54.1271 102.886 56.3851V56.3853C102.912 57.5159 102.938 58.6476 102.938 59.7794C102.9 60.0252 102.842 60.2676 102.764 60.5041ZM95.0576 37.6885V14.4959C95.1947 13.1205 94.7079 11.7562 93.7311 10.7788C92.7544 9.80149 91.3909 9.3143 90.0165 9.45152C88.7022 9.45152 87.3878 9.46764 86.0746 9.48376L86.0741 9.48377C83.4505 9.51597 80.8312 9.54811 78.2248 9.45152C76.6799 9.25714 75.1325 9.79225 74.0371 10.8996C72.9418 12.007 72.423 13.5609 72.6332 15.1047C72.7491 19.318 72.7105 23.5313 72.6718 27.7446C72.6525 29.8513 72.6332 31.958 72.6332 34.0646V60.881C72.493 62.1929 72.9556 63.4975 73.8907 64.4276C74.8259 65.3577 76.1324 65.8127 77.4426 65.6645H90.0454C91.3784 65.8346 92.717 65.3946 93.6894 64.4665C94.6618 63.5385 95.1644 62.2214 95.0576 60.881V37.6885ZM69.5029 36.6635C69.4927 54.575 55.0132 69.1078 37.1134 69.1723L37.0265 69.2013C28.335 69.241 19.9922 65.7837 13.8736 59.6067C7.75503 53.4297 4.37407 45.0513 4.49078 36.3549C4.65043 18.4441 19.2506 4.03282 37.1504 4.1178C55.0502 4.20278 69.5131 18.7521 69.5029 36.6635Z" fill="#094998"/>
<path d="M28.9999 32.4944L28.2776 39.5443C26.5759 40.0393 24.85 40.4489 23.1065 40.7717C19.2064 41.2854 15.2774 41.685 11.3485 41.999C10.1821 42.0102 9.02148 41.8368 7.91066 41.4852C7.27858 41.3557 6.72607 40.9798 6.37809 40.4426C6.03011 39.9054 5.91606 39.2523 6.06174 38.631C6.22711 36.9527 6.53637 35.2913 6.9862 33.6646C8.2502 29.2027 10.3255 25.0052 13.1107 21.2773C13.7718 20.3738 14.5378 19.55 15.393 18.8227C15.9158 18.2017 16.7318 17.8998 17.5389 18.0288C18.3459 18.1578 19.024 18.6985 19.3219 19.4506C19.8011 20.2007 20.2073 20.9939 20.5353 21.8196C21.7356 25.1577 23.715 28.1694 26.3132 30.6106C27.1651 31.2972 28.0627 31.9265 28.9999 32.4944Z" fill="#31B7BD"/>
<path d="M36.2221 27.6528C35.069 27.982 33.9334 28.374 32.8201 28.8271C31.6952 29.4721 30.6152 30.1981 29.5883 30.9995C28.8512 30.1188 27.944 29.1793 27.2069 28.0638C24.542 24.4235 21.7353 20.7538 19.3256 16.8493C16.9159 12.9448 17.7947 11.2128 21.9338 9.89168C27.4206 8.06275 33.2375 7.55075 38.9437 8.39447C43.3663 9.06968 44.1317 11.0953 41.4385 14.7063C40.3612 16.1741 39.369 17.642 38.4334 19.2273C36.9106 21.7487 36.1413 24.68 36.2221 27.6528Z" fill="#31B7BD"/>
<path d="M29.1135 40.9995C30.4523 43.1021 32.5505 44.6471 34.9999 45.3339C33.8226 48.4137 32.8514 51.4935 31.7624 54.3451C30.9088 56.5124 29.761 58.537 28.8192 60.6472C28.7526 60.8048 28.6739 60.9573 28.5837 61.1035C26.4352 64.554 24.7282 64.8676 21.5789 62.3297C16.6852 58.523 12.9096 53.5373 10.6303 47.8719C9.07039 43.9366 10.3948 42.3682 14.7213 42.7675C17.6576 43.0439 20.6146 43.0439 23.5509 42.7675C25.4633 42.3665 27.3276 41.774 29.1135 40.9995V40.9995Z" fill="#31B7BD"/>
<path d="M37.8199 46.024C40.3836 45.9476 42.8119 44.8597 44.5707 42.9995C46.613 45.289 48.6553 47.4373 50.499 49.7552C52.0521 51.7331 53.4734 53.8105 54.7537 55.9738C55.3515 57.0445 55.7548 58.2119 55.945 59.4224C56.2287 60.7509 55.4061 61.9098 53.6191 62.5034C51.2331 63.2993 48.7981 63.9413 46.3294 64.4256C42.5854 65.1399 38.7441 65.1878 34.9834 64.5669C30.672 63.8602 29.8778 61.9381 32.5157 58.5178C33.3099 57.472 34.1041 56.3978 34.8416 55.2954C36.7853 52.5926 37.8272 49.3492 37.8199 46.024Z" fill="#31B7BD"/>
<path d="M37.9999 28.2437C39.1966 25.0291 40.189 21.9606 41.4442 19.0089C42.3855 16.8415 43.4577 14.7335 44.6549 12.6966C45.1877 11.7383 45.8563 10.8622 46.6398 10.0957C47.1595 9.44557 47.9315 9.04833 48.762 9.00369C49.5925 8.95905 50.4026 9.27123 50.9889 9.86186C56.3876 14.1861 60.4387 19.9659 62.6644 26.5195C62.773 26.8726 62.8511 27.2343 62.8979 27.6008C63.3649 30.2601 62.2266 31.4875 59.512 31.2245C57.4104 31.02 55.2796 30.7277 53.1488 30.5816C50.5086 30.3818 47.8602 30.8439 45.443 31.9259C45.0264 32.0734 44.5634 31.9961 44.2171 31.7213C42.6588 29.8164 40.4371 28.5736 37.9999 28.2437Z" fill="#31B7BD"/>
<path d="M45.9999 41.8759C47.3469 39.6467 47.6373 36.9278 46.7918 34.4606C48.4365 33.8943 50.1189 33.4464 51.8264 33.1201C55.3054 32.6067 58.7844 32.293 62.2916 32.0078C63.2415 31.9708 64.1921 32.057 65.1201 32.2645C67.3545 32.6638 68.2313 33.8046 67.9485 36.0577C67.1108 42.2658 64.716 48.1557 60.9906 53.1699C60.4923 53.8474 59.9234 54.4689 59.2935 55.0238C58.728 55.7537 57.8131 56.115 56.9064 55.9666C55.9997 55.8182 55.2452 55.1835 54.9377 54.3108C54.4476 53.3914 54.0223 52.4383 53.6649 51.4587C52.2246 47.5014 49.5305 44.1332 45.9999 41.8759H45.9999Z" fill="#31B7BD"/>
<path fill-rule="evenodd" clip-rule="evenodd" d="M39.7411 44.514C42.7909 43.4002 44.865 40.5528 44.9901 37.3077C45.0947 35.204 44.3562 33.1455 42.9383 31.5883C41.5204 30.0311 39.5402 29.1037 37.4364 29.0116C34.1946 28.8336 31.1668 30.6335 29.7737 33.5669C28.3806 36.5002 28.8986 39.9849 31.0848 42.3859C33.2709 44.7869 36.6913 45.6278 39.7411 44.514ZM39.4211 37.3077C39.2846 38.5444 38.236 39.4781 36.9921 39.4706C36.3391 39.5093 35.7022 39.2583 35.2513 38.7844C34.8003 38.3104 34.581 37.6618 34.6519 37.0114C34.7156 35.7209 35.7893 34.7124 37.081 34.73C38.4321 34.8096 39.4718 35.9548 39.4211 37.3077Z" fill="#094998"/>
<rect x="75.9999" y="13.9995" width="15" height="2" rx="0.34" fill="#094998"/>
<rect x="75.9999" y="19.9995" width="15" height="2" rx="0.34" fill="#094998"/>
<rect x="75.9999" y="26.9995" width="15" height="2" rx="0.34" fill="#094998"/>
<rect x="75.9999" y="32.9995" width="15" height="2" rx="0.34" fill="#094998"/>
<rect x="75.9999" y="39.9995" width="15" height="2" rx="0.34" fill="#094998"/>
<rect x="75.9999" y="45.9995" width="15" height="2" rx="0.34" fill="#094998"/>
<rect x="75.9999" y="52.9995" width="15" height="2" rx="0.34" fill="#094998"/>
<rect x="75.9999" y="58.9995" width="15" height="2" rx="0.34" fill="#094998"/>
</svg>
